<svg width="1440" height="946" viewBox="0 0 1440 946" fill="none" xmlns="http://www.w3.org/2000/svg">
<g opacity="0.2" clip-path="url(#clip0_213_24510)">
<path d="M354.313 945.996H360.275C369.046 941.45 378.781 939.077 388.661 939.077C398.541 939.077 408.277 941.45 417.047 945.996H423.01C412.719 939.537 400.813 936.11 388.661 936.11C376.509 936.11 364.604 939.537 354.313 945.996Z" fill="#ECE6FF"/>
<path d="M400.878 911.296C387.608 911.299 374.527 914.446 362.708 920.478C350.889 926.509 340.668 935.254 332.884 945.996H336.589C344.15 936.126 353.884 928.128 365.037 922.624C376.19 917.12 388.461 914.257 400.899 914.257C413.337 914.257 425.609 917.12 436.761 922.624C447.914 928.128 457.648 936.126 465.21 945.996H468.914C461.126 935.249 450.898 926.5 439.072 920.468C427.245 914.436 414.156 911.293 400.878 911.296Z" fill="#ECE6FF"/>
<path d="M413.093 886.472C371.746 886.472 335.994 910.864 319.471 946H322.756C339.062 912.546 373.429 889.439 413.093 889.439C452.758 889.439 487.133 912.546 503.435 945.996H506.72C490.197 910.864 454.446 886.472 413.093 886.472Z" fill="#ECE6FF"/>
<path d="M425.313 861.645C399.466 861.663 374.283 869.824 353.343 884.967C332.404 900.11 316.773 921.465 308.674 945.996H311.809C319.849 922.284 335.122 901.686 355.481 887.098C375.84 872.509 400.262 864.664 425.313 864.664C450.364 864.664 474.785 872.509 495.144 887.098C515.503 901.686 530.776 922.284 538.817 945.996H541.952C533.85 921.467 518.219 900.113 497.28 884.97C476.341 869.828 451.159 861.666 425.313 861.645Z" fill="#ECE6FF"/>
<path d="M437.528 836.83C405.56 836.843 374.53 847.624 349.448 867.431C324.366 887.238 306.695 914.916 299.29 945.996H302.338C309.71 915.719 327.044 888.795 351.559 869.541C376.074 850.288 406.349 839.822 437.528 839.822C468.706 839.822 498.981 850.288 523.496 869.541C548.011 888.795 565.346 915.719 572.718 945.996H575.77C568.365 914.915 550.694 887.235 525.611 867.427C500.528 847.619 469.496 836.838 437.528 836.826V836.83Z" fill="#ECE6FF"/>
<path d="M449.747 812.011C428.549 811.953 407.549 816.099 387.964 824.207C368.379 832.315 350.598 844.225 335.649 859.247C311.705 883.177 296.214 913.298 290.672 946H293.682C299.195 914.096 314.366 884.711 337.753 861.346C352.459 846.644 369.92 834.982 389.137 827.025C408.354 819.068 428.951 814.973 449.752 814.973C470.553 814.973 491.15 819.068 510.367 827.025C529.584 834.982 547.044 846.644 561.75 861.346C585.133 884.711 600.304 914.096 605.822 946H608.832C603.285 913.298 587.798 883.177 563.854 859.247C548.905 844.224 531.122 832.314 511.536 824.205C491.949 816.097 470.948 811.952 449.747 812.011Z" fill="#ECE6FF"/>
<path d="M589.727 840.084C565.778 816.123 535.569 799.377 502.55 791.76C469.53 784.143 435.033 785.961 402.999 797.007C370.965 808.053 342.685 827.882 321.391 854.227C300.097 880.573 286.646 912.373 282.577 945.996H285.566C290.86 902.964 311.719 863.353 344.212 834.628C376.705 805.902 418.588 790.045 461.969 790.045C505.35 790.045 547.233 805.902 579.726 834.628C612.219 863.353 633.078 902.964 638.372 945.996H641.361C636.526 905.902 618.342 868.597 589.731 840.079L589.727 840.084Z" fill="#ECE6FF"/>
<path d="M615.604 820.924C588.622 793.922 554.469 775.206 517.182 766.987C479.895 758.769 441.033 761.392 405.19 774.547C369.348 787.701 338.023 810.837 314.919 841.219C291.815 871.602 277.898 907.96 274.814 945.996H277.791C281.852 896.731 304.302 850.794 340.683 817.306C377.064 783.818 424.717 765.228 474.177 765.228C523.638 765.228 571.29 783.818 607.672 817.306C644.053 850.794 666.503 896.731 670.564 945.996H673.537C669.732 898.744 649.191 854.397 615.604 820.924Z" fill="#ECE6FF"/>
<path d="M641.49 801.756C611.476 771.711 573.375 751.025 531.82 742.215C490.264 733.404 447.042 736.847 407.407 752.126C367.772 767.405 333.432 793.861 308.559 828.278C283.687 862.696 269.353 903.594 267.301 946H270.274C272.974 890.534 296.921 838.232 337.154 799.932C377.387 761.631 430.821 740.267 486.385 740.266C541.948 740.266 595.383 761.629 635.616 799.929C675.85 838.229 699.798 890.53 702.499 945.996H705.468C702.862 891.627 680.044 840.189 641.481 801.752L641.49 801.756Z" fill="#ECE6FF"/>
<path d="M667.371 782.592C634.325 749.515 592.279 726.875 546.462 717.487C500.646 708.098 453.078 712.375 409.674 729.786C366.269 747.197 328.942 776.974 302.334 815.414C275.725 853.855 261.008 899.264 260.013 945.996H262.977C264.322 884.428 289.739 825.834 333.783 782.766C377.827 739.698 436.995 715.581 498.614 715.581C560.233 715.581 619.402 739.698 663.446 782.766C707.49 825.834 732.907 884.428 734.251 945.996H737.22C735.95 884.55 710.916 825.984 667.371 782.588V782.592Z" fill="#ECE6FF"/>
<path d="M748.545 845.386C725.399 790.543 683.979 745.392 631.315 717.595C578.651 689.799 517.986 681.069 459.614 692.887C401.243 704.704 348.76 736.342 311.071 782.43C273.383 828.519 252.811 886.22 252.845 945.742V946H255.814C255.814 945.913 255.814 945.825 255.814 945.742C255.814 878.146 282.682 813.318 330.508 765.52C378.334 717.722 443.2 690.87 510.836 690.87C578.472 690.87 643.338 717.722 691.164 765.52C738.989 813.318 765.858 878.146 765.858 945.742V946H768.826V945.742C768.891 911.267 761.993 877.133 748.545 845.386Z" fill="#ECE6FF"/>
<path d="M778.584 832.359C753.705 773.407 709.183 724.873 652.573 694.994C595.964 665.115 530.754 655.73 468.01 668.433C405.265 681.136 348.851 715.144 308.339 764.685C267.828 814.227 245.715 876.251 245.752 940.233C245.752 942.161 245.777 944.08 245.815 946H248.783C248.746 944.08 248.721 942.161 248.721 940.233C248.721 867.514 277.625 797.774 329.075 746.354C380.525 694.934 450.306 666.047 523.068 666.047C595.829 666.047 665.61 694.934 717.06 746.354C768.51 797.774 797.414 867.514 797.414 940.233C797.414 942.161 797.389 944.08 797.352 946H800.316C800.358 944.08 800.379 942.158 800.379 940.233C800.452 903.175 793.039 866.485 778.584 832.359Z" fill="#ECE6FF"/>
<path d="M808.59 819.337C781.977 756.275 734.353 704.359 673.798 672.397C613.244 640.434 543.489 630.396 476.372 643.984C409.254 657.572 348.908 693.95 305.573 746.945C262.238 799.939 238.585 866.286 238.626 934.727C238.626 938.494 238.697 942.252 238.838 946H241.807C241.665 942.252 241.595 938.494 241.595 934.727C241.595 896.184 249.191 858.019 263.949 822.41C278.707 786.801 300.339 754.445 327.609 727.192C354.879 699.938 387.253 678.319 422.883 663.569C458.513 648.819 496.701 641.228 535.266 641.228C573.832 641.228 612.019 648.819 647.649 663.569C683.279 678.319 715.653 699.938 742.923 727.192C770.193 754.445 791.825 786.801 806.583 822.41C821.341 858.019 828.938 896.184 828.938 934.727C828.938 938.494 828.868 942.252 828.73 946H831.698C831.834 942.252 831.903 938.494 831.906 934.727C831.982 895.087 824.052 855.84 808.59 819.337Z" fill="#ECE6FF"/>
<path d="M838.616 806.31C810.257 739.157 759.527 683.875 695.032 649.844C630.537 615.812 556.248 605.125 484.768 619.596C413.287 634.068 349.017 672.806 302.858 729.24C256.699 785.673 231.495 856.328 231.521 929.217C231.521 934.835 231.659 940.429 231.936 946H234.909C234.618 940.426 234.471 934.832 234.468 929.217C234.468 846.254 267.445 766.689 326.143 708.025C384.841 649.361 464.453 616.404 547.465 616.404C630.476 616.404 710.088 649.361 768.786 708.025C827.484 766.689 860.461 846.254 860.461 929.217C860.461 934.835 860.312 940.429 860.016 946H862.989C863.28 940.426 863.427 934.832 863.429 929.217C863.517 886.997 855.077 845.193 838.616 806.31Z" fill="#ECE6FF"/>
<path d="M868.639 793.288C838.56 722.008 784.731 663.326 716.286 627.198C647.841 591.07 568.997 579.722 493.134 595.081C417.27 610.44 349.06 651.558 300.079 711.459C251.098 771.359 224.363 846.352 224.411 923.711C224.411 931.191 224.654 938.62 225.139 946H228.112C227.624 938.612 227.378 931.183 227.376 923.711C227.221 879.997 235.703 836.682 252.334 796.25C268.965 755.819 293.42 719.066 324.294 688.101C355.169 657.135 391.856 632.565 432.252 615.801C472.648 599.036 515.958 590.406 559.699 590.406C603.439 590.406 646.749 599.036 687.146 615.801C727.542 632.565 764.229 657.135 795.103 688.101C825.978 719.066 850.432 755.819 867.064 796.25C883.695 836.682 892.177 879.997 892.022 923.711C892.022 931.191 891.777 938.62 891.286 946H894.259C894.741 938.606 894.984 931.177 894.986 923.711C895.075 878.908 886.114 834.547 868.639 793.288Z" fill="#ECE6FF"/>
<path d="M898.661 780.261C866.845 704.876 809.912 642.814 737.522 604.607C665.132 566.4 581.744 554.401 501.509 570.646C421.275 586.89 349.135 630.379 297.331 693.731C245.528 757.084 217.252 836.397 217.301 918.214C217.301 927.536 217.659 936.8 218.374 946.008H221.351C220.636 936.803 220.275 927.538 220.27 918.214C220.111 871.96 229.089 826.13 246.69 783.352C264.29 740.573 290.167 701.688 322.837 668.925C355.506 636.162 394.325 610.167 437.068 592.43C479.811 574.692 525.637 565.562 571.918 565.562C618.199 565.562 664.025 574.692 706.768 592.43C749.51 610.167 788.33 636.162 820.999 668.925C853.668 701.688 879.545 740.573 897.146 783.352C914.747 826.13 923.725 871.96 923.566 918.214C923.566 927.536 923.205 936.8 922.485 946.008H925.462C926.174 936.8 926.531 927.536 926.534 918.214C926.626 870.824 917.146 823.902 898.661 780.261Z" fill="#ECE6FF"/>
<path d="M928.675 767.234C890.66 677.654 819.303 606.341 729.67 568.349C683.565 548.857 634.597 538.976 584.123 538.976C533.649 538.976 484.68 548.857 438.576 568.349C348.942 606.339 277.586 677.653 239.574 767.234C220.07 813.312 210.184 862.252 210.184 912.696C210.184 923.876 210.669 934.978 211.639 946H214.62C213.644 934.98 213.155 923.879 213.152 912.696C213.152 862.651 222.96 814.097 242.306 768.39C280.016 679.515 350.808 608.765 439.736 571.079C485.47 551.745 534.052 541.939 584.127 541.939C634.202 541.939 682.784 551.745 728.518 571.079C817.444 608.766 888.235 679.516 925.944 768.39C945.289 814.097 955.102 862.651 955.102 912.696C955.102 923.876 954.611 934.978 953.63 946H956.611C957.578 934.98 958.063 923.879 958.066 912.696C958.074 862.252 948.187 813.312 928.675 767.234Z" fill="#ECE6FF"/>
<path d="M958.71 754.212C918.734 659.997 843.688 584.996 749.418 545.043C700.936 524.545 649.435 514.153 596.354 514.153C543.274 514.153 491.769 524.541 443.286 545.043C349.019 584.999 273.974 660 233.994 754.212C213.485 802.666 203.086 854.137 203.086 907.19C203.086 920.229 203.714 933.166 204.97 946H207.951C206.692 933.171 206.06 920.235 206.055 907.19C206.055 854.535 216.374 803.455 236.73 755.367C276.402 661.862 350.882 587.425 444.442 547.777C492.559 527.416 543.669 517.12 596.354 517.12C649.04 517.12 700.146 527.433 748.262 547.777C841.823 587.425 916.303 661.862 955.974 755.367C976.347 803.455 986.649 854.535 986.649 907.19C986.649 920.229 986.017 933.166 984.754 946H987.735C988.985 933.171 989.612 920.235 989.618 907.19C989.618 854.137 979.22 802.666 958.71 754.212Z" fill="#ECE6FF"/>
<path d="M988.733 741.185C946.791 642.345 868.059 563.662 769.159 521.748C718.29 500.245 664.261 489.338 608.57 489.338C552.878 489.338 498.849 500.241 447.98 521.748C349.082 563.668 270.351 642.353 228.406 741.194C206.891 792.033 195.977 846.03 195.977 901.689C195.976 916.493 196.758 931.287 198.322 946.008H201.307C199.73 931.288 198.941 916.494 198.941 901.689C198.941 846.424 209.776 792.822 231.134 742.349C272.773 644.216 350.941 566.096 449.132 524.483C499.631 503.133 553.273 492.305 608.565 492.305C663.858 492.305 717.496 503.133 767.999 524.483C866.19 566.096 944.358 644.216 985.997 742.349C1007.36 792.818 1018.19 846.429 1018.19 901.689C1018.19 916.494 1017.4 931.288 1015.82 946.008H1018.81C1020.38 931.287 1021.16 916.493 1021.16 901.689C1021.16 846.021 1010.25 792.024 988.733 741.185Z" fill="#ECE6FF"/>
<path d="M1018.76 728.163C974.855 624.688 892.435 542.314 788.899 498.438C735.648 475.925 679.087 464.51 620.785 464.51C562.482 464.51 505.926 475.925 452.674 498.438C349.139 542.314 266.719 624.688 222.819 728.163C200.292 781.379 188.871 837.906 188.871 896.175C188.868 912.824 189.815 929.459 191.707 946H194.692C192.788 929.46 191.836 912.824 191.84 896.175C191.84 838.305 203.182 782.168 225.55 729.318C269.153 626.553 351.009 544.746 453.834 501.168C506.715 478.813 562.885 467.477 620.785 467.477C678.684 467.477 734.858 478.813 787.739 501.168C890.564 544.746 972.42 626.553 1016.02 729.318C1038.39 782.168 1049.73 838.305 1049.73 896.175C1049.74 912.824 1048.79 929.46 1046.88 946H1049.87C1051.76 929.459 1052.71 912.824 1052.7 896.175C1052.7 837.906 1041.28 781.379 1018.76 728.163Z" fill="#ECE6FF"/>
<path d="M1048.78 715.136C1002.91 607.034 916.802 520.978 808.636 475.135C753.006 451.617 693.914 439.691 633.004 439.691C572.095 439.691 513.002 451.617 457.372 475.135C349.206 520.978 263.098 607.034 217.226 715.136C193.694 770.737 181.762 829.791 181.762 890.665C181.758 909.161 182.877 927.64 185.113 946H188.102C185.851 927.641 184.725 909.161 184.73 890.665C184.73 830.19 196.584 771.523 219.962 716.291C265.53 608.899 351.072 523.406 458.528 477.865C513.792 454.501 572.494 442.654 633.004 442.654C693.515 442.654 752.216 454.501 807.48 477.865C914.936 523.406 1000.48 608.899 1046.05 716.291C1069.42 771.523 1081.28 830.19 1081.28 890.665C1081.28 909.161 1080.16 927.641 1077.91 946H1080.9C1083.13 927.64 1084.25 909.161 1084.25 890.665C1084.25 829.791 1072.31 770.737 1048.78 715.136Z" fill="#ECE6FF"/>
<path d="M1078.8 702.114C1030.97 589.381 941.175 499.636 828.376 451.829C770.36 427.313 708.74 414.847 645.219 414.847C581.699 414.847 520.074 427.284 462.067 451.829C349.268 499.636 259.472 589.381 211.639 702.114C187.109 760.092 174.636 821.676 174.636 885.159C174.63 905.502 175.929 925.824 178.523 946H181.517C178.904 925.825 177.596 905.503 177.6 885.159C177.6 822.079 189.965 760.881 214.354 703.269C261.884 591.246 351.114 502.067 463.202 454.563C520.847 430.193 582.081 417.835 645.198 417.835C708.316 417.835 769.554 430.193 827.2 454.563C939.288 502.069 1028.52 591.247 1076.05 703.269C1100.44 760.881 1112.8 822.079 1112.8 885.159C1112.81 905.503 1111.5 925.825 1108.88 946H1111.88C1114.47 925.824 1115.77 905.502 1115.77 885.159C1115.77 821.68 1103.35 760.092 1078.8 702.114Z" fill="#ECE6FF"/>
<path d="M1108.83 689.087C1059.03 571.723 965.545 478.293 848.112 428.526C787.731 402.993 723.566 390.028 657.439 390.028C591.311 390.028 527.159 402.976 466.76 428.51C349.33 478.278 255.847 571.708 206.051 689.071C180.502 749.434 167.547 813.548 167.547 879.633C167.534 901.828 169.016 923.999 171.983 945.996H174.972C171.99 924.005 170.499 901.838 170.507 879.645C170.507 813.96 183.396 750.231 208.757 690.238C258.255 573.586 351.174 480.723 467.895 431.256C527.924 405.876 591.685 393.008 657.414 393.008C723.142 393.008 786.904 405.889 846.932 431.256C963.653 480.723 1056.57 573.586 1106.07 690.238C1131.46 750.231 1144.32 813.96 1144.32 879.645C1144.34 901.837 1142.86 924.004 1139.88 945.996H1142.87C1145.84 924.004 1147.33 901.837 1147.32 879.645C1147.33 813.565 1134.38 749.454 1108.83 689.087Z" fill="#ECE6FF"/>
<path d="M1138.85 676.061C1087.11 554.051 989.935 456.928 867.853 405.224C805.073 378.684 738.392 365.226 669.654 365.226C600.915 365.226 534.235 378.684 471.459 405.224C349.377 456.928 252.197 554.051 200.463 676.061C173.904 738.804 160.437 805.45 160.437 874.144C160.43 898.182 162.108 922.192 165.46 945.996H168.457C165.085 922.192 163.397 898.181 163.406 874.14C163.406 805.845 176.793 739.59 203.195 677.216C254.631 555.92 351.243 459.364 472.61 407.958C535.021 381.572 601.315 368.197 669.65 368.197C737.985 368.197 804.283 381.572 866.693 407.958C988.062 459.361 1084.68 555.918 1136.11 677.216C1162.51 739.59 1175.9 805.845 1175.9 874.14C1175.91 898.181 1174.22 922.192 1170.85 945.996H1173.85C1177.2 922.19 1178.88 898.18 1178.87 874.14C1178.87 805.45 1165.41 738.804 1138.85 676.061Z" fill="#ECE6FF"/>
<path d="M1168.88 663.026C1115.18 536.385 1014.31 435.576 887.594 381.909C822.431 354.36 753.218 340.39 681.873 340.39C610.528 340.39 541.315 354.36 476.153 381.909C349.438 435.576 248.57 536.385 194.871 663.026C167.306 728.15 153.332 797.322 153.332 868.626C153.32 894.518 155.194 920.376 158.941 945.996H161.938C158.172 920.381 156.288 894.524 156.3 868.634C156.3 797.73 170.195 728.944 197.603 664.198C251.002 538.268 351.305 438.024 477.308 384.656C542.101 357.264 610.927 343.373 681.865 343.373C752.803 343.373 821.633 357.264 886.421 384.656C1012.43 438.022 1112.73 538.267 1166.12 664.198C1193.53 728.952 1207.43 797.738 1207.43 868.634C1207.45 894.524 1205.57 920.38 1201.81 945.996H1204.81C1208.55 920.379 1210.42 894.523 1210.41 868.634C1210.41 797.335 1196.43 728.163 1168.88 663.026Z" fill="#ECE6FF"/>
<path d="M1198.9 650.012C1143.24 518.739 1038.68 414.244 907.33 358.619C839.785 330.06 768.049 315.583 694.088 315.583C620.128 315.583 548.392 330.06 480.851 358.619C349.501 414.245 244.944 518.74 189.283 650.012C160.712 717.517 146.222 789.211 146.222 863.128C146.21 890.868 148.289 918.569 152.442 945.996H155.444C151.275 918.569 149.19 890.866 149.207 863.124C149.207 789.614 163.614 718.303 192.031 651.163C247.39 520.609 351.376 416.684 482.007 361.357C549.182 332.956 620.535 318.559 694.088 318.559C767.641 318.559 838.999 332.956 906.174 361.357C1036.81 416.686 1140.8 520.615 1196.17 651.175C1224.58 718.315 1238.99 789.627 1238.99 863.137C1239 890.878 1236.92 918.581 1232.75 946.008H1235.76C1239.9 918.579 1241.98 890.877 1241.97 863.137C1241.96 789.22 1227.47 717.517 1198.9 650.012Z" fill="#ECE6FF"/>
<path d="M1228.92 636.989C1171.3 501.09 1063.05 392.911 927.075 335.321C857.164 305.752 782.867 290.76 706.308 290.76C629.749 290.76 555.472 305.752 485.536 335.312C349.559 392.905 241.317 501.083 183.691 636.981C154.105 706.876 139.138 781.104 139.138 857.623C139.117 887.212 141.393 916.759 145.948 945.996H148.954C144.366 916.76 142.068 887.211 142.081 857.619C142.081 781.499 157.003 707.657 186.427 638.14C243.754 502.946 351.44 395.331 486.717 338.047C556.275 308.64 630.156 293.727 706.324 293.727C782.492 293.727 856.37 308.64 925.931 338.047C1061.2 395.335 1168.88 502.952 1226.21 638.144C1255.63 707.661 1270.55 781.499 1270.55 857.623C1270.56 887.215 1268.25 916.762 1263.66 945.996H1266.67C1271.23 916.758 1273.51 887.21 1273.5 857.619C1273.5 781.104 1258.5 706.876 1228.92 636.989Z" fill="#ECE6FF"/>
<path d="M1258.95 623.967C1199.35 483.435 1087.42 371.569 946.807 312.014C874.501 281.44 797.709 265.941 718.523 265.941C639.336 265.941 562.549 281.44 490.239 312.01C349.626 371.569 237.695 483.436 178.103 623.967C147.515 696.234 132.007 772.994 132.007 852.117C131.989 883.568 134.482 914.97 139.462 946.025H142.464C137.459 914.973 134.957 883.569 134.98 852.117C134.98 773.397 150.409 697.024 180.843 625.122C240.132 485.291 351.506 373.982 491.419 314.727C563.347 284.315 639.777 268.895 718.548 268.895C797.319 268.895 873.736 284.315 945.676 314.727C1085.59 373.983 1196.96 485.292 1256.25 625.122C1286.69 697.007 1302.12 773.397 1302.12 852.117C1302.14 883.569 1299.63 914.973 1294.63 946.025H1297.63C1302.62 914.971 1305.11 883.568 1305.09 852.117C1305.04 772.989 1289.53 696.23 1258.95 623.967Z" fill="#ECE6FF"/>
<path d="M1288.97 610.94C1227.42 465.777 1111.8 350.223 966.548 288.708C891.855 257.128 812.519 241.118 730.742 241.118C648.965 241.118 569.625 257.128 494.937 288.708C349.686 350.22 234.063 465.774 172.515 610.94C140.917 685.584 124.898 764.878 124.898 846.607C124.88 879.903 127.587 913.145 132.992 946H136.003C130.569 913.148 127.847 879.905 127.866 846.607C127.866 765.277 143.807 686.374 175.263 612.095C236.513 467.64 351.57 352.651 496.109 291.437C570.431 260.016 649.377 244.068 730.759 244.068C812.141 244.068 891.082 259.999 965.408 291.437C1109.94 352.656 1224.99 467.644 1286.23 612.095C1317.67 686.374 1333.63 765.277 1333.63 846.607C1333.65 879.905 1330.93 913.148 1325.49 946H1328.5C1333.91 913.145 1336.62 879.904 1336.6 846.607C1336.58 764.878 1320.56 685.584 1288.97 610.94Z" fill="#ECE6FF"/>
<path d="M1318.99 597.914C1255.48 448.12 1136.17 328.881 986.288 265.405C909.214 232.82 827.345 216.299 742.957 216.299C658.57 216.299 576.705 232.82 499.631 265.405C349.747 328.878 230.437 448.118 166.927 597.914C134.323 674.943 117.792 756.763 117.792 841.098C117.767 876.247 120.688 911.337 126.523 946H129.533C123.667 911.341 120.729 876.249 120.752 841.098C120.752 757.162 137.208 675.72 169.655 599.069C232.87 449.987 351.613 331.314 500.782 268.135C577.487 235.724 658.969 219.261 742.953 219.261C826.938 219.261 908.428 235.708 985.128 268.135C1134.3 331.314 1253.04 449.987 1316.26 599.069C1348.69 675.732 1365.15 757.162 1365.15 841.098C1365.18 876.248 1362.24 911.338 1356.38 945.996H1359.41C1365.24 911.333 1368.16 876.243 1368.14 841.093C1368.14 756.763 1351.6 674.943 1318.99 597.914Z" fill="#ECE6FF"/>
<path d="M1349.01 584.908C1283.53 430.475 1160.53 307.544 1006.01 242.103C926.551 208.512 842.155 191.48 755.16 191.48C668.165 191.48 583.765 208.516 504.308 242.103C349.787 307.547 226.785 430.478 161.302 584.908C127.692 664.318 110.649 748.669 110.649 835.613C110.625 872.616 113.769 909.553 120.046 946.021H123.06C116.761 909.549 113.613 872.603 113.651 835.592C113.651 749.047 130.614 665.087 164.071 586.042C229.248 432.33 351.679 309.972 505.481 244.833C584.572 211.396 668.581 194.442 755.177 194.442C841.772 194.442 925.765 211.396 1004.87 244.833C1158.67 309.97 1281.1 432.329 1346.28 586.042C1379.74 665.103 1396.7 749.039 1396.7 835.592C1396.73 872.596 1393.57 909.533 1387.26 945.996H1390.27C1396.55 909.529 1399.7 872.591 1399.67 835.588C1399.67 748.648 1382.62 664.297 1349.01 584.908Z" fill="#ECE6FF"/>
<path d="M1379.04 571.865C1311.6 412.809 1184.91 286.197 1025.76 218.796C943.926 184.2 856.997 166.656 767.392 166.656C677.786 166.656 590.858 184.2 509.023 218.796C349.875 286.198 223.189 412.81 155.747 571.865C121.127 653.656 103.573 740.533 103.573 830.086C103.545 868.949 106.911 907.739 113.634 946.017H116.649C109.896 907.743 106.514 868.951 106.541 830.086C106.541 740.932 124.004 654.441 158.479 573.02C225.62 414.675 351.741 288.63 510.179 221.53C591.669 187.083 678.189 169.619 767.392 169.619C856.594 169.619 943.136 187.071 1024.61 221.53C1183.04 288.633 1309.16 414.677 1376.3 573.02C1410.77 654.441 1428.24 740.932 1428.24 830.086C1428.27 868.951 1424.89 907.743 1418.13 946.017H1421.15C1427.87 907.739 1431.24 868.948 1431.21 830.086C1431.21 740.533 1413.66 653.656 1379.04 571.865Z" fill="#ECE6FF"/>
<path d="M1409.06 558.838C1339.66 395.151 1209.29 264.853 1045.51 195.494C961.284 159.888 871.828 141.833 779.615 141.833C687.403 141.833 597.926 159.888 513.721 195.494C349.94 264.856 219.567 395.153 150.164 558.838C114.533 643.01 96.4677 732.418 96.4677 824.576C96.4399 865.287 100.032 905.92 107.203 945.996H110.217C103.014 905.923 99.4065 865.287 99.4363 824.572C99.4363 732.813 117.418 643.795 152.891 559.989C221.996 397.016 351.804 267.287 514.873 198.224C598.724 162.775 687.798 144.8 779.611 144.8C871.425 144.8 960.494 162.775 1044.35 198.224C1207.41 267.28 1337.22 397.006 1406.33 559.976C1441.8 643.783 1459.79 732.8 1459.79 824.56C1459.81 865.278 1456.21 905.918 1449.01 945.996H1452.02C1459.19 905.919 1462.78 865.285 1462.75 824.572C1462.75 732.418 1444.69 643.01 1409.06 558.838Z" fill="#ECE6FF"/>
<path d="M1439.09 545.816C1367.72 377.5 1233.66 243.517 1065.24 172.191C978.638 135.575 886.646 117.031 791.826 117.031C697.007 117.031 605.015 135.592 518.411 172.208C349.997 243.534 215.935 377.517 144.568 545.832C107.934 632.385 89.3581 724.319 89.3581 819.087C89.3278 861.647 93.1476 904.123 100.771 945.996H103.798C96.1397 904.12 92.303 861.636 92.335 819.067C92.335 724.698 110.832 633.15 147.312 546.966C218.375 379.365 351.866 245.949 519.563 174.921C605.801 138.463 697.402 119.977 791.822 119.977C886.243 119.977 977.844 138.463 1064.08 174.921C1231.78 245.95 1365.28 379.367 1436.35 546.971C1472.83 633.154 1491.32 724.702 1491.32 819.071C1491.35 861.638 1487.52 904.121 1479.87 945.996H1482.89C1490.51 904.116 1494.33 861.633 1494.3 819.067C1494.29 724.303 1475.72 632.369 1439.09 545.816Z" fill="#ECE6FF"/>
<path d="M1469.11 532.789C1395.78 359.847 1258.04 222.18 1085 148.889C996.029 111.267 901.493 92.1909 804.066 92.1909C706.64 92.1909 612.116 111.267 523.13 148.889C350.084 222.179 212.335 359.846 139 532.789C101.357 621.71 82.2732 716.192 82.2732 813.561C82.2329 857.982 86.2745 902.313 94.3471 945.996H97.3655C89.251 902.317 85.1842 857.982 85.2169 813.557C85.2169 716.586 104.226 622.508 141.711 533.94C214.745 361.706 351.93 224.604 524.265 151.615C612.881 114.147 707.014 95.1535 804.046 95.1535C901.077 95.1535 995.198 114.151 1083.83 151.619C1256.16 224.608 1393.34 361.71 1466.38 533.944C1503.86 622.512 1522.87 716.591 1522.87 813.561C1522.9 857.985 1518.84 902.318 1510.72 945.996H1513.74C1521.82 902.313 1525.87 857.98 1525.84 813.557C1525.84 716.212 1506.75 621.723 1469.11 532.789Z" fill="#ECE6FF"/>
<path d="M1542.32 658.796C1522.9 564.052 1485.01 474.058 1430.79 393.951C1350.35 274.867 1237.09 181.647 1104.72 125.582C1059.89 106.643 1013.29 92.1843 965.608 82.4178C867.055 62.3508 765.466 62.3508 666.914 82.4178C572.11 101.831 482.059 139.713 401.901 193.902C282.747 274.295 189.473 387.494 133.379 519.787C114.431 564.585 99.9678 611.149 90.2021 658.796C70.9062 753.487 70.1579 851.019 87.9985 945.996H91.017C73.1496 851.224 73.8655 753.885 93.1249 659.386C112.468 565.025 150.211 475.393 204.201 395.605C284.315 276.998 397.122 184.153 528.959 128.316C573.608 109.448 620.018 95.048 667.508 85.3264C765.668 65.3375 866.853 65.3375 965.013 85.3264C1059.43 104.658 1149.11 142.379 1228.95 196.337C1347.63 276.407 1440.53 389.153 1496.4 520.917C1515.28 565.542 1529.7 611.926 1539.43 659.39C1558.69 753.89 1559.39 851.227 1541.51 945.996H1544.54C1562.37 851.017 1561.61 753.484 1542.31 658.792L1542.32 658.796Z" fill="#ECE6FF"/>
<path d="M1529.16 506.74C1455.9 333.888 1321.25 194.233 1151.13 114.669C981.007 35.105 787.446 21.2578 607.72 75.7938C427.994 130.33 274.811 249.393 177.669 410.055C80.5274 570.717 46.296 761.618 81.5667 945.996H84.5893C65.8848 848.151 66.4977 747.596 86.3937 649.987C106.242 553.156 144.975 461.179 200.38 379.304C282.594 257.588 398.36 162.309 533.653 105.01C579.476 85.6492 627.106 70.8731 675.845 60.8979C776.574 40.3878 880.407 40.3878 981.137 60.8979C1078.03 80.7307 1170.06 119.439 1251.98 174.813C1373.77 256.986 1469.1 372.683 1526.44 507.895C1545.81 553.693 1560.59 601.294 1570.58 650.003C1590.47 747.613 1591.08 848.168 1572.38 946.012H1575.4C1580.23 920.699 1583.77 895.158 1586 869.486V735.605C1579.16 656.812 1559.98 579.582 1529.16 506.74Z" fill="#ECE6FF"/>
<path d="M1487.28 361.357C1402.65 236.06 1283.47 137.979 1144.2 78.998C1097.03 59.0694 1048.01 43.8564 997.846 33.5816C894.155 12.4676 787.269 12.4676 683.578 33.5816C583.837 54.0041 489.095 93.8527 404.757 150.854C279.388 235.441 181.249 354.545 122.229 493.738C102.288 540.874 87.0671 589.868 76.7896 640.002C56.2147 740.91 55.6624 844.875 75.1639 945.996H78.1866C58.6397 845.08 59.1483 741.307 79.6833 640.588C100.037 541.293 139.755 446.977 196.571 363.019C280.884 238.193 399.604 140.479 538.351 81.7114C585.339 61.8587 634.179 46.7055 684.156 36.4736C787.451 15.4383 893.931 15.4383 997.227 36.4736C1096.6 56.8091 1190.99 96.5043 1275.01 153.293C1399.91 237.556 1497.68 356.207 1556.48 494.873C1567.89 521.853 1577.76 549.46 1586.03 577.561V567.277C1563.47 494.14 1530.19 424.747 1487.28 361.357Z" fill="#ECE6FF"/>
<path d="M1417.94 226.836C1345.09 153.971 1258.84 95.8532 1163.94 55.6748C1115.6 35.2523 1065.35 19.6634 1013.94 9.13644C907.679 -12.4983 798.143 -12.4983 691.881 9.13644C589.668 30.0661 492.578 70.9031 406.15 129.318C277.674 215.999 177.105 338.053 116.624 480.695C96.1894 529.006 80.5914 579.22 70.0582 630.603C48.8547 734.623 48.4139 841.805 68.761 945.996H71.7836C51.3982 842.009 51.7995 735.019 72.9644 631.189C93.8256 529.416 134.536 432.745 192.771 346.694C279.183 218.768 400.856 118.628 543.053 58.4048C591.209 38.0582 641.262 22.5264 692.479 12.0368C798.348 -9.51487 907.477 -9.51487 1013.35 12.0368C1115.18 32.8866 1211.91 73.5712 1298.01 131.769C1425.68 217.901 1525.69 339.096 1586 480.745V473.236C1545.93 381.301 1488.92 297.715 1417.94 226.832V226.836Z" fill="#ECE6FF"/>
<path d="M546.587 32.3682C373.107 105.84 230.247 236.798 142.054 403.199C53.8608 569.601 25.718 761.287 62.3625 945.996H65.3892C44.1557 838.939 44.4469 728.729 66.2457 621.785C87.6152 517.544 129.311 418.527 188.955 330.384C277.469 199.35 402.103 96.7793 547.76 35.0982C597.086 14.2568 648.356 -1.65222 700.819 -12.3959C722.392 -16.806 744.191 -20.3407 766.215 -23H743.968C729.277 -20.8254 714.689 -18.2575 700.204 -15.2962C647.55 -4.51264 596.094 11.4534 546.587 32.3682Z" fill="#ECE6FF"/>
<path d="M1182.52 35.1024C1355.49 108.375 1497.96 238.906 1586 404.771V398.484C1573.09 374.55 1559.01 351.297 1543.76 328.726C1454.93 197.221 1329.85 94.2793 1183.68 32.3682C1134.17 11.4531 1082.71 -4.5129 1030.06 -15.2962C1015.57 -18.2575 1000.98 -20.8254 986.292 -23H964.044C986.033 -20.3462 1007.84 -16.8101 1029.46 -12.3917C1081.92 -1.64749 1133.19 14.2615 1182.52 35.1024Z" fill="#ECE6FF"/>
<path d="M1344.05 88.7254C1432.93 148.756 1509.48 225.255 1569.54 314.083C1575.18 322.419 1580.67 330.859 1586 339.405V333.829C1581.44 326.627 1576.78 319.491 1572.01 312.421C1481.08 177.809 1353.04 72.4354 1203.41 9.06579C1174.06 -3.33352 1144.03 -14.0397 1113.45 -23L1102.69 -23C1188.63 1.03329 1270.13 38.7593 1344.05 88.7254Z" fill="#ECE6FF"/>
<path d="M408.969 86.2821C274.289 177.156 168.863 305.108 105.461 454.642C84.0381 505.288 67.6853 557.93 56.6415 611.796C34.167 722.042 33.9437 835.663 55.9846 945.996H59.0114C36.9312 835.869 37.1121 722.442 59.5435 612.386C81.4156 505.673 124.101 404.309 185.163 314.079C275.767 179.941 403.348 74.9395 552.45 11.7958C584.864 -1.90048 618.118 -13.5225 652.009 -23L641.241 -23C558.631 1.21202 480.277 38.0772 408.969 86.2821Z" fill="#ECE6FF"/>
<path d="M1367.08 67.2014C1452.25 124.729 1526.4 197.069 1586 280.779V275.698C1493.97 147.601 1368.44 47.2926 1223.15 -14.2367C1216.01 -17.2561 1208.82 -20.1772 1201.59 -23H1193.35C1202.98 -19.3379 1212.52 -15.5068 1222 -11.5067C1272.79 9.98778 1321.37 36.3468 1367.08 67.2014Z" fill="#ECE6FF"/>
<path d="M410.391 64.7457C272.594 157.719 164.727 288.631 99.8561 441.624C77.9365 493.438 61.2062 547.295 49.9103 602.405C26.8012 715.76 26.6895 832.597 49.5818 945.996H52.6086C29.6773 832.801 29.748 716.154 52.8165 602.987C75.1959 493.807 118.868 390.099 181.342 297.783C274.044 160.538 404.578 53.1035 557.131 -11.5067C566.602 -15.5068 576.149 -19.3379 585.773 -23H577.537C570.308 -20.1745 563.121 -17.2533 555.975 -14.2367C505.009 7.33084 456.253 33.7818 410.391 64.7457Z" fill="#ECE6FF"/>
<path d="M282.094 150.181C202.137 230.032 138.36 324.562 94.264 428.58C71.8524 481.563 54.7461 536.633 43.1956 592.985C19.4553 709.457 19.4553 829.516 43.1956 945.988H46.2265C46.1891 945.792 46.1475 945.572 46.1059 945.398C22.4405 829.317 22.4405 709.66 46.1059 593.58C68.9938 481.926 113.654 375.868 177.538 281.457C266.801 149.332 390.456 44.0639 535.171 -23L528.165 -23C436.78 20.1428 353.533 78.7303 282.094 150.181Z" fill="#ECE6FF"/>
<path d="M1519.37 152.275C1542.98 175.881 1565.22 200.81 1586 226.94V222.191C1502.47 117.919 1396.24 34.062 1275.4 -23L1268.39 -23C1361.71 20.2331 1446.67 79.5658 1519.37 152.275Z" fill="#ECE6FF"/>
<path d="M280.647 131.017C198.925 212.631 133.741 309.25 88.676 415.566C65.7697 469.718 48.2846 526.003 36.4767 583.599C12.2129 702.641 12.2129 825.35 36.4767 944.392L36.8134 946H39.8444C39.6919 945.263 39.5395 944.529 39.387 943.798C15.2006 825.148 15.2006 702.843 39.387 584.193C62.7753 470.066 108.425 361.661 173.729 265.164C255.178 144.612 364.787 45.7061 493.074 -23L486.838 -23C461.615 -9.28779 437.084 5.61142 413.247 21.6976C365.667 53.8377 321.266 90.4436 280.647 131.017Z" fill="#ECE6FF"/>
<path d="M1545.25 133.111C1559.3 147.153 1572.88 161.666 1586 176.65V172.162C1573.53 158.034 1560.64 144.322 1547.33 131.025C1506.73 90.4526 1462.34 53.8467 1414.77 21.7059C1391 5.64466 1366.46 -9.25732 1341.17 -23H1334.93C1412.32 18.4426 1483.19 71.0434 1545.25 133.111Z" fill="#ECE6FF"/>
<path d="M1571.13 113.948C1576.15 118.959 1581.1 124.031 1586 129.164V124.876C1581.78 120.491 1577.53 116.15 1573.23 111.853C1531.75 70.4067 1486.4 33.012 1437.8 0.177782C1425.95 -7.82516 1413.9 -15.5511 1401.67 -23H1395.94C1409.56 -14.8004 1422.96 -6.25587 1436.14 2.63351C1484.58 35.3636 1529.78 72.6371 1571.13 113.948Z" fill="#ECE6FF"/>
<path d="M279.201 111.853C195.713 195.227 129.123 293.932 83.0884 402.544C59.6869 457.863 41.8244 515.362 29.7624 574.2C4.97277 695.807 4.97277 821.16 29.7624 942.767C29.9827 943.843 30.2114 944.916 30.4317 945.992H33.4668C33.1897 944.715 32.9235 943.442 32.6685 942.173C7.96099 820.955 7.96099 696.003 32.6685 574.786C56.5651 458.194 103.197 347.446 169.904 248.859C235.537 151.805 319.175 68.2215 416.291 2.63351C429.454 -6.25587 442.855 -14.8004 456.495 -23H450.766C438.534 -15.5539 426.488 -7.82793 414.628 0.177782C366.033 33.012 320.685 70.4067 279.201 111.853Z" fill="#ECE6FF"/>
<path d="M277.754 92.6895C192.504 177.825 124.506 278.613 77.4962 389.517C53.597 446.005 35.3529 504.719 23.031 564.801C-2.28083 688.978 -2.28083 816.982 23.031 941.159C23.3594 942.776 23.7004 944.388 24.0371 946H27.0681C26.6856 944.188 26.3086 942.377 25.9372 940.565C0.702939 816.78 0.702939 689.18 25.9372 565.395C50.3452 446.332 97.9704 333.237 166.096 232.562C233.119 133.45 318.528 48.0944 417.7 -18.8863C419.746 -20.2714 421.796 -21.6426 423.849 -23H418.507L416.037 -21.3379C366.418 12.1877 320.113 50.37 277.754 92.6895Z" fill="#ECE6FF"/>
<path d="M159.847 214.587C88.9698 319.853 39.7765 438.172 15.1366 562.64C-9.50337 687.108 -9.09668 815.234 16.3329 939.543C16.7736 941.695 17.2227 943.848 17.68 946H20.7151C20.2162 943.651 19.7242 941.296 19.2391 938.936C-6.5162 812.583 -6.5162 682.337 19.2391 555.983C44.1524 434.447 92.7652 319.003 162.304 216.236C224.994 123.536 303.488 42.5599 394.209 -23L389.154 -23C299.547 42.3483 221.961 122.736 159.847 214.587Z" fill="#ECE6FF"/>
<path d="M156.038 198.282C83.7242 305.681 33.5336 426.398 8.39462 553.389C-16.7443 680.379 -16.3283 811.102 9.61852 937.931C10.1673 940.619 10.7369 943.312 11.3107 946H14.3458C13.7249 943.111 13.1179 940.221 12.5247 937.332C-13.7571 808.411 -13.7571 675.518 12.5247 546.597C37.9405 422.589 87.5425 304.797 158.5 199.944C215.83 115.153 286.167 39.9166 366.923 -23L362.104 -23C282.354 39.6391 212.834 114.292 156.038 198.282Z" fill="#ECE6FF"/>
<path d="M152.23 181.977C78.4833 291.511 27.298 414.625 1.65954 544.137C-23.979 673.649 -23.5574 806.967 2.89958 936.314C3.5648 939.541 4.24526 942.77 4.94097 946H7.97608C7.23602 942.576 6.51396 939.149 5.80993 935.72C-20.9986 804.23 -20.9986 668.688 5.80993 537.198C31.7322 410.72 82.3217 290.581 154.691 183.639C190.212 131.125 230.668 82.1208 275.508 37.2922C296.574 16.2391 318.583 -3.85831 341.536 -23H336.921C314.916 -4.51207 293.752 14.8872 273.43 35.1979C228.449 80.159 187.865 129.308 152.23 181.977Z" fill="#ECE6FF"/>
<path d="M148.426 165.672C73.2404 277.337 21.0566 402.848 -5.08167 534.883C-31.2199 666.917 -30.7893 802.832 -3.81484 934.698C-3.04152 938.468 -2.24602 942.235 -1.42835 946H1.60675C0.744734 942.036 -0.0937462 938.07 -0.908646 934.104C-28.2327 800.044 -28.2327 661.854 -0.908646 527.794C25.527 398.849 77.105 276.366 150.883 167.334C187.101 113.799 228.347 63.8401 274.062 18.1366C288.198 4.00889 302.75 -9.70332 317.717 -23H313.26C299.124 -10.3681 285.353 2.64321 271.946 16.0341C226.101 61.8706 184.74 111.977 148.426 165.672Z" fill="#ECE6FF"/>
<path d="M144.617 149.367C67.9932 263.164 14.8105 391.072 -11.8281 525.629C-38.4668 660.185 -38.0282 798.696 -10.5379 933.081C-9.65646 937.395 -8.74454 941.701 -7.80215 946H-4.7629C-5.74688 941.499 -6.70315 936.994 -7.63169 932.487C-35.4824 795.86 -35.4824 655.023 -7.63169 518.395C19.3054 386.978 71.8711 262.148 147.066 151.029C183.981 96.4566 226.026 45.5318 272.627 -1.05216C280.058 -8.48168 287.61 -15.7976 295.282 -23H290.962C284.052 -16.468 277.238 -9.84598 270.519 -3.13392C223.794 43.5816 181.635 94.6465 144.617 149.367Z" fill="#ECE6FF"/>
<path d="M140.801 133.062C62.7477 248.993 8.57383 379.296 -18.5609 516.372C-45.6956 653.448 -45.2479 794.552 -17.244 931.453C-16.2517 936.303 -15.222 941.151 -14.1549 945.996H-11.1156C-12.2243 940.96 -13.2984 935.917 -14.3378 930.867C-42.7096 791.671 -42.7096 648.188 -14.3378 508.992C13.1077 375.103 66.6623 247.926 143.27 134.715C180.874 79.1276 223.701 27.2541 271.168 -20.1994C272.104 -21.1343 273.047 -22.0651 273.987 -23H269.779L269.068 -22.2978C221.465 25.2929 178.514 77.3151 140.801 133.062Z" fill="#ECE6FF"/>
<path d="M38.3727 298.343C11.0184 363.009 -9.86069 430.224 -23.9589 499.003C-52.9405 641.159 -52.9405 787.697 -23.9589 929.853C-22.8502 935.241 -21.7026 940.623 -20.5163 946H-17.4771C-18.7105 940.427 -19.9024 934.846 -21.0526 929.259C-49.9494 787.498 -49.9494 641.37 -21.0526 499.61C6.89923 363.251 61.4413 233.727 139.462 118.427C173.477 68.1448 211.694 20.8334 253.702 -23L249.594 -23C160.367 70.5002 88.8102 179.37 38.3851 298.343H38.3727Z" fill="#ECE6FF"/>
<path d="M32.7849 285.317C4.93782 351.153 -16.32 419.582 -30.6775 489.604C-60.1746 634.329 -60.1746 783.512 -30.6775 928.237C-29.4579 934.165 -28.1912 940.086 -26.8774 946H-23.8423C-25.206 939.886 -26.5157 933.767 -27.7713 927.642C-57.1964 783.31 -57.1964 634.53 -27.7713 490.198C0.681019 351.365 56.211 219.49 135.649 102.101C165.446 58.0578 198.419 16.2464 234.306 -23L230.286 -23C147.527 67.9039 80.755 172.148 32.7974 285.317H32.7849Z" fill="#ECE6FF"/>
<path d="M27.1969 272.294C-1.14489 339.295 -22.7801 408.935 -37.3922 480.196C-67.4161 627.489 -67.4161 779.319 -37.3922 926.612C-36.0646 933.083 -34.6787 939.543 -33.2346 945.992H-30.1953C-31.6838 939.343 -33.1112 932.685 -34.4777 926.018C-64.4239 779.117 -64.4239 627.691 -34.4777 480.791C-5.51595 339.491 51.0013 205.273 131.849 85.796C157.526 47.8388 185.525 11.5042 215.688 -23L211.751 -23C135.047 65.0969 72.7605 164.758 27.1969 272.294Z" fill="#ECE6FF"/>
<path d="M21.6047 259.268C-7.22248 327.441 -29.2267 398.3 -44.0862 470.806C-74.6366 620.667 -74.6366 775.146 -44.0862 925.008C-42.6504 932.014 -41.1453 939.011 -39.571 946H-36.5276C-38.1491 938.814 -39.6999 931.612 -41.18 924.393C-71.6473 774.925 -71.6473 620.851 -41.18 471.383C-3.74874 289.349 78.3584 119.464 197.76 -23L193.894 -23C122.887 62.1092 64.832 157.223 21.6047 259.268Z" fill="#ECE6FF"/>
<path d="M16.0171 246.258C-13.3124 315.598 -35.7011 387.67 -50.8213 461.419C-81.8929 613.848 -81.8929 770.974 -50.8213 923.404C-49.2747 930.955 -47.649 938.492 -45.9444 946.012H-42.901C-44.65 938.292 -46.3214 930.558 -47.9151 922.81C-78.9113 770.767 -78.9113 614.039 -47.9151 461.996C-17.9405 315.755 40.5547 176.844 124.232 53.19C141.886 27.0814 160.634 1.68474 180.477 -23H176.677C157.363 1.12517 139.07 25.9692 121.796 51.5321C80.3279 112.875 44.9028 178.088 16.0171 246.258Z" fill="#ECE6FF"/>
<path d="M10.4293 233.219C-19.3891 303.727 -42.1496 377.013 -57.5192 452.003C-89.1173 607.002 -89.1173 766.777 -57.5192 921.775C-55.8561 929.864 -54.1099 937.939 -52.2806 946H-49.2372C-51.1192 937.742 -52.9111 929.469 -54.613 921.181C-86.128 766.576 -86.128 607.207 -54.613 452.602C-24.1359 303.891 35.3426 162.633 120.428 36.8891C134.209 16.5036 148.652 -3.45941 163.755 -23H160.013C145.389 -4.00513 131.375 15.4039 117.971 35.227C75.8131 97.6002 39.7977 163.907 10.4293 233.219Z" fill="#ECE6FF"/>
<path d="M4.84552 220.196C-25.4711 291.872 -48.6132 366.371 -64.2421 442.604C-96.3669 600.17 -96.3669 762.593 -64.2421 920.159C-62.4737 928.791 -60.607 937.404 -58.6418 946H-55.5984C-57.6107 937.208 -59.5232 928.396 -61.3359 919.565C-93.3775 762.39 -93.3775 600.373 -61.3359 443.198C-30.3513 292.019 30.1145 148.416 116.611 20.584C126.59 5.84134 136.899 -8.68667 147.54 -23H143.844C133.638 -9.22962 123.74 4.74436 114.15 18.922C71.2999 82.3299 34.6942 149.736 4.84552 220.196Z" fill="#ECE6FF"/>
<path d="M-0.750771 207.17C-31.5639 280.017 -55.0848 355.734 -70.9693 433.213C-103.609 593.345 -103.609 758.41 -70.9693 918.542C-69.09 927.703 -67.1013 936.854 -65.0031 945.996H-61.9597C-64.105 936.666 -66.1381 927.315 -68.0589 917.944C-100.622 758.202 -100.622 593.537 -68.0589 433.795C-36.5719 280.144 24.8832 134.194 112.799 4.27482C118.994 -4.89712 125.333 -13.9887 131.816 -23H128.165C122.115 -14.5317 116.176 -5.99271 110.35 2.61689C66.7968 67.0573 29.5896 135.561 -0.750771 207.17Z" fill="#ECE6FF"/>
<path d="M-6.33862 194.143C-37.6465 268.156 -61.5448 345.086 -77.6839 423.806C-110.851 586.51 -110.851 754.227 -77.6839 916.93C-75.6938 926.64 -73.5845 936.335 -71.356 946.017H-68.3084C-70.5923 936.152 -72.7474 926.264 -74.7735 916.353C-107.863 754.041 -107.863 586.728 -74.7735 424.417C-42.7774 268.288 19.6695 119.984 109.003 -12.0302C111.498 -15.6979 114 -19.3545 116.512 -23H112.907C110.773 -19.903 108.652 -16.799 106.546 -13.6882C62.2917 51.7839 24.487 121.386 -6.33862 194.143Z" fill="#ECE6FF"/>
<path d="M-84.3985 414.407C-118.087 579.679 -118.087 750.042 -84.3985 915.314C-82.3003 925.563 -80.0676 935.792 -77.7006 946H-74.653C-77.0672 935.598 -79.347 925.171 -81.4923 914.72C-115.103 749.84 -115.103 579.88 -81.4923 415.001C-49.4188 258.526 12.7691 109.769 101.615 -23L98.0474 -23C9.56799 109.674 -52.3862 258.207 -84.3985 414.407Z" fill="#ECE6FF"/>
<path d="M-91.1131 405.008C-125.328 572.847 -125.328 745.858 -91.1131 913.697C-88.8957 924.501 -86.5397 935.268 -84.0451 946H-80.9976C-83.5504 935.058 -85.9535 924.092 -88.207 913.103C-122.338 745.656 -122.338 573.049 -88.207 405.602C-56.9544 253.082 2.49574 107.728 87.0921 -23L83.5581 -23C-0.685997 107.627 -59.9147 252.758 -91.1131 405.008Z" fill="#ECE6FF"/>
<path d="M-97.8278 395.609C-132.572 566.022 -132.572 741.688 -97.8278 912.102C-95.5079 923.437 -93.0285 934.744 -90.3898 946.021H-87.3422C-90.0281 934.53 -92.5601 923.026 -94.9383 911.508C-129.596 741.493 -129.596 566.239 -94.9383 396.224C-64.4816 247.588 -7.6361 105.606 72.9061 -23L69.4054 -23C-10.796 105.491 -67.4269 247.246 -97.8278 395.609Z" fill="#ECE6FF"/>
<path d="M-104.542 386.21C-139.804 559.186 -139.804 737.492 -104.542 910.469C-102.114 922.342 -99.5114 934.185 -96.7341 946H-93.6907C-96.5124 933.991 -99.1622 921.95 -101.64 909.875C-136.825 737.291 -136.825 559.388 -101.64 386.804C-71.9747 242.009 -17.6229 103.389 59.0406 -23L55.569 -23C-20.7864 103.267 -74.9396 241.671 -104.542 386.21Z" fill="#ECE6FF"/>
<path d="M-111.261 376.811C-147.045 552.355 -147.045 733.308 -111.261 908.852C-108.717 921.268 -105.989 933.651 -103.079 946H-100.031C-102.992 933.457 -105.763 920.876 -108.347 908.258C-144.053 733.106 -144.053 552.557 -108.347 377.405C-79.4664 236.387 -27.4944 101.101 45.4739 -23L42.0355 -23C-30.6385 100.975 -82.4279 236.046 -111.261 376.811Z" fill="#ECE6FF"/>
<path d="M-117.976 367.407C-154.286 545.521 -154.286 729.123 -117.976 907.236C-115.323 920.192 -112.472 933.113 -109.423 946H-106.376C-109.472 932.919 -112.37 919.8 -115.069 906.642C-151.296 728.922 -151.296 545.726 -115.069 368.006C-86.9534 230.717 -37.2536 98.7461 32.1821 -23L28.7646 -23C-40.3853 98.6147 -89.9073 230.37 -117.976 367.407Z" fill="#ECE6FF"/>
<path d="M-124.69 358.008C-161.522 538.69 -161.522 724.938 -124.69 905.62C-121.918 919.116 -118.944 932.576 -115.768 946H-112.72C-115.955 932.382 -118.976 918.724 -121.784 905.025C-158.531 724.74 -158.531 538.9 -121.784 358.615C-94.4237 225.009 -46.9053 96.335 19.1437 -23L15.751 -23C-50.0338 96.1916 -97.3841 224.65 -124.69 358.008Z" fill="#ECE6FF"/>
<path d="M-131.405 348.609C-168.763 531.859 -168.763 720.757 -131.405 904.007C-128.533 918.044 -125.434 932.041 -122.108 946H-119.052C-122.428 931.847 -125.576 917.65 -128.494 903.409C-165.769 720.552 -165.769 532.06 -128.494 349.203C-110.358 260.736 -83.5034 174.281 -48.3224 91.1022C-31.9107 52.3202 -13.6864 14.2861 6.35074 -23H2.9789C-16.7616 13.8567 -34.7781 51.5058 -51.0706 89.947C-86.3261 173.306 -113.235 259.95 -131.405 348.609Z" fill="#ECE6FF"/>
</g>
<defs>
<clipPath id="clip0_213_24510">
<rect width="1883" height="969" fill="white" transform="translate(-297 -23)"/>
</clipPath>
</defs>
</svg>
